<?xml version="1.0" encoding="UTF-8"?>
<svg id="slk-logo" xmlns="http://www.w3.org/2000/svg" viewBox="0 0 380 100">
  <defs>
    <style>
      .cls-1 {
        fill: #fff;
        stroke: #fff;
        stroke-miterlimit: 10;
      }
    </style>
  </defs>
  <path class="cls-1" d="m40.91,37.61h-1.78c.25-2.39.38-4.21.38-5.44,0-1.75-.47-3.14-1.42-4.15s-2.22-1.52-3.84-1.52c-2.5,0-4.68.91-6.55,2.72-1.86,1.81-2.8,3.85-2.8,6.11,0,1.21.25,2.3.77,3.28.51.98,1.64,2.35,3.39,4.11,3.2,3.15,5.3,5.61,6.3,7.39,1,1.78,1.5,3.51,1.5,5.2,0,2.48-.76,4.88-2.27,7.18-1.52,2.3-3.75,4.2-6.7,5.7-2.95,1.49-6.07,2.24-9.35,2.24s-5.96-.84-8.19-2.53c-2.22-1.69-3.33-3.46-3.33-5.33,0-1,.29-1.83.87-2.5.58-.66,1.25-.99,2-.99s1.41.31,1.91.92c.32.37.64,1.19.96,2.46.36,1.55.81,2.67,1.33,3.37.52.7,1.25,1.27,2.17,1.71.92.45,1.93.67,3.03.67,3.26,0,6.11-1.1,8.54-3.3,2.44-2.2,3.66-4.63,3.66-7.3,0-.91-.15-1.82-.46-2.72s-.87-1.92-1.69-3.06c-.57-.78-1.83-2.14-3.79-4.1-1.94-1.92-3.16-3.23-3.66-3.94-.71-1.03-1.23-2.06-1.57-3.09-.34-1.04-.51-2.07-.51-3.1,0-2.07.69-4.16,2.08-6.26,1.39-2.1,3.2-3.77,5.42-5.01,2.22-1.24,4.75-1.87,7.57-1.87,1.41,0,3.16.22,5.23.65,1.18.23,2.21.4,3.08.51-.5,1.48-.89,2.88-1.16,4.19s-.65,3.91-1.13,7.81Z"/>
  <path class="cls-1" d="m71.33,58.12l.89,1.26c-2.1,2.32-4.25,4.17-6.46,5.54-1.5.93-2.75,1.4-3.73,1.4-.8,0-1.44-.32-1.93-.96-.49-.64-.73-1.63-.73-2.97,0-.91.19-2.24.56-3.98.38-1.74,1.44-5.49,3.2-11.23.77-2.83,1.16-4.48,1.16-4.96,0-.73-.39-1.09-1.17-1.09-.96,0-2.16.48-3.6,1.43-2.01,1.32-3.79,3-5.35,5.05-.98,1.31-1.77,3.25-2.37,5.82l-2.7,11.94h-5.09c1.09-3.98,1.94-7.24,2.53-9.77l5.02-21.92c.91-4.05,2.11-7.17,3.61-9.35s3.44-3.93,5.84-5.23c2.4-1.3,4.78-1.96,7.13-1.96.98,0,1.75.24,2.32.73.57.49.85,1.1.85,1.84,0,.62-.28,1.17-.84,1.65s-1.32.71-2.28.71c-.55,0-1.25-.06-2.12-.18-1.96-.29-3.32-.43-4.07-.43-1.05,0-1.91.42-2.57,1.27-.66.85-1.35,2.84-2.05,5.97l-3.81,16.87c2.71-2.84,5.67-5.24,8.86-7.2,1.87-1.16,3.38-1.74,4.52-1.74.89,0,1.59.26,2.09.79s.75,1.25.75,2.19c0,.78-.09,1.55-.27,2.32-.3,1.34-1,3.78-2.09,7.31-1.49,4.88-2.36,7.91-2.62,9.09s-.39,2.24-.39,3.18c0,.37.06.64.19.82.12.18.31.27.56.27.55,0,1.57-.65,3.08-1.95.84-.71,1.87-1.55,3.08-2.53Z"/>
  <path class="cls-1" d="m75.78,44.55l-1.5-1.16c2.28-2.51,4.35-4.29,6.23-5.35,1.88-1.06,3.48-1.59,4.8-1.59.73,0,1.29.16,1.67.48s.58.75.58,1.3c0,.66-.74,3.46-2.22,8.41-2.41,8.09-3.61,12.96-3.61,14.63,0,.32.08.59.24.8.16.22.33.32.51.32.73,0,2.6-1.41,5.61-4.24l1.33,1.3c-3.12,2.94-5.4,4.82-6.84,5.64s-2.61,1.23-3.52,1.23c-.8,0-1.43-.25-1.9-.75-.47-.5-.7-1.2-.7-2.09,0-2.85,1.71-9.81,5.13-20.88.16-.52.24-.99.24-1.4,0-.46-.21-.68-.62-.68-.46,0-.97.18-1.56.55-.58.37-1.87,1.53-3.88,3.49Zm13.43-22.63c.71,0,1.29.23,1.74.7.46.47.68,1.07.68,1.79,0,1-.35,1.88-1.04,2.65s-1.48,1.14-2.34,1.14c-.68,0-1.25-.24-1.71-.72-.46-.48-.68-1.11-.68-1.88,0-1.03.33-1.9.99-2.61.66-.72,1.45-1.08,2.36-1.08Z"/>
  <path class="cls-1" d="m91.98,45.1l-1.33-1.37c2.07-2.48,4.14-4.32,6.19-5.5s3.83-1.78,5.33-1.78c.57,0,1.02.14,1.35.43s.5.7.5,1.25c0,.66-.07,1.34-.22,2.04s-.61,2.34-1.38,4.94c3.49-3.49,5.87-5.64,7.14-6.46,2.14-1.39,4.1-2.09,5.88-2.09,1.16,0,2.14.55,2.94,1.64.8,1.09,1.2,2.75,1.2,4.96,0,5.51-1.72,10.76-5.16,15.72-3.44,4.97-7.24,7.45-11.41,7.45-1.64,0-3.28-.45-4.92-1.33l-2.92,11.28c-.18.68-.27,1.24-.27,1.68,0,.84.32,1.45.96,1.81.98.57,3.04,1.04,6.19,1.4l-.44,1.71c-3.67-.3-6.55-.45-8.65-.45s-4.97.15-8.41.45l.44-1.71c1.73-.18,2.99-.66,3.78-1.44.79-.78,1.42-2.15,1.9-4.14l6.19-25.94c1.16-4.83,1.74-7.52,1.74-8.07,0-.59-.29-.89-.85-.89-1,0-2.92,1.47-5.74,4.41Zm6.92,16.13c1.8,1.8,3.64,2.7,5.53,2.7,2.73,0,5.13-2.13,7.19-6.39,2.06-4.26,3.09-8.42,3.09-12.47,0-1.3-.29-2.29-.87-2.96s-1.36-1.01-2.34-1.01c-1.09,0-2.32.54-3.68,1.61-2.12,1.66-3.73,3.32-4.84,4.96-.79,1.19-1.55,3.24-2.25,6.15l-1.82,7.42Z"/>
  <path class="cls-1" d="m123.18,44.48l-1.03-1.37c2.26-2.26,4.4-3.92,6.43-4.99,2.03-1.07,3.63-1.61,4.8-1.61.48,0,.84.1,1.08.31s.36.49.36.86c0,.46-.18,1.33-.55,2.63-.52,1.91-.89,3.43-1.09,4.55,5.45-5.56,9.62-8.34,12.51-8.34.75,0,1.32.21,1.7.62s.58,1.06.58,1.95c0,.96-.34,2.59-1.02,4.89,2.6-2.71,4.86-4.63,6.77-5.76,1.92-1.13,3.41-1.69,4.48-1.69.96,0,1.7.27,2.22.82s.79,1.39.79,2.53c0,.68-.11,1.49-.34,2.43-.23.94-1.06,3.78-2.5,8.54-1.8,5.9-2.7,9.42-2.7,10.56,0,.78.32,1.16.96,1.16.43,0,.85-.14,1.26-.41,1.34-.96,2.72-2.14,4.14-3.55l1.13,1.23c-.48.39-1.38,1.19-2.7,2.39-1.82,1.64-3.08,2.67-3.76,3.08-1.32.77-2.44,1.16-3.35,1.16-.68,0-1.29-.34-1.81-1.01-.52-.67-.79-1.6-.79-2.79,0-1.09.16-2.38.48-3.84.32-1.47,1.25-4.77,2.8-9.9,1.16-3.85,1.74-6.19,1.74-7.01,0-.78-.34-1.16-1.03-1.16-.57,0-1.33.29-2.29.85-1.96,1.19-3.6,2.63-4.92,4.34-.91,1.19-1.71,3.06-2.39,5.64-1.53,5.63-2.67,10.22-3.42,13.78h-4.85l5.09-20.88c.36-1.5.55-2.37.55-2.6,0-.36-.09-.64-.27-.84s-.44-.29-.79-.29c-.61,0-1.57.48-2.87,1.44-2.25,1.62-3.87,3.18-4.86,4.7s-1.84,3.82-2.54,6.92l-2.63,11.55h-4.91l3.86-16.3c1.14-4.72,1.71-7.28,1.71-7.69,0-.52-.21-.79-.62-.79-.89,0-2.7,1.3-5.43,3.9Z"/>
  <path class="cls-1" d="m183.58,56.79l1.13,1.5c-5.58,5.31-10.37,7.96-14.36,7.96-1.62,0-2.85-.55-3.71-1.64s-1.28-2.85-1.28-5.26c0-4.88,1.48-9.73,4.44-14.56,3.33-5.49,7.3-8.24,11.93-8.24,1.62,0,2.85.41,3.71,1.21s1.28,1.92,1.28,3.33-.51,2.94-1.54,4.38-2.86,2.93-5.5,4.48c-1.32.75-4.15,2.11-8.48,4.07-.21,1.23-.31,2.4-.31,3.52,0,1.62.26,2.75.77,3.38s1.26.96,2.24.96,1.96-.26,3.08-.79c1.5-.71,3.7-2.14,6.6-4.31Zm-11.96-4.96c3.67-1.64,6.43-3.41,8.27-5.3,1.25-1.32,1.88-2.63,1.88-3.93,0-.98-.26-1.76-.77-2.34-.51-.58-1.18-.87-2-.87s-1.66.32-2.46.96c-1.07.84-1.97,2.12-2.7,3.83-1.05,2.51-1.79,5.06-2.22,7.66Z"/>
  <path class="cls-1" d="m190.48,44.65l-1.16-1.2c2.92-2.79,5.25-4.65,6.98-5.56,1.73-.92,3.22-1.37,4.45-1.37.48,0,.85.1,1.13.31s.41.45.41.72c0,.21-.06.57-.17,1.09l-1.54,6.88c2.32-2.58,5.23-4.98,8.74-7.22,1.87-1.16,3.4-1.75,4.61-1.75.89,0,1.58.29,2.08.86.5.57.75,1.39.75,2.46,0,.71-.1,1.5-.31,2.39-.36,1.48-1.32,4.71-2.86,9.67-1.45,4.65-2.18,7.74-2.18,9.26,0,.47.07.82.21,1.05s.33.35.58.35c.66,0,1.7-.64,3.11-1.91,1-.91,2-1.75,3.01-2.53l.85,1.23c-2.1,2.31-4.27,4.17-6.53,5.58-1.44.91-2.62,1.36-3.55,1.36-.87,0-1.54-.31-2.02-.94-.48-.63-.72-1.65-.72-3.06,0-2.03,1.26-7.07,3.79-15.14.77-2.87,1.16-4.55,1.16-5.03,0-.71-.42-1.06-1.26-1.06-.91,0-2.08.48-3.52,1.44-2.14,1.41-3.93,3.08-5.37,5-.91,1.23-1.67,3.2-2.29,5.89l-2.77,11.95h-5.09c.96-3.42,1.79-6.7,2.5-9.82l3.04-13.01c.11-.53.17-.9.17-1.13,0-.62-.23-.92-.68-.92-.37,0-.89.24-1.57.72-1.41.94-2.73,2.09-3.96,3.45Z"/>
  <path class="cls-1" d="m231.23,31.36l5.43-2.08-2.46,9.57h7.08l-.55,2.43h-7.08l-2.98,11.46c-.95,3.44-1.42,5.83-1.42,7.17,0,.62.13,1.06.39,1.33s.62.41,1.08.41c.71,0,1.79-.42,3.25-1.26,1.91-1.12,3.74-2.38,5.47-3.79l1.3,1.57c-4.99,3.76-8.33,6.06-10.01,6.9-1.69.84-3.04,1.27-4.07,1.27-.84,0-1.51-.31-2-.92s-.73-1.62-.73-3.01c0-1.64.43-4.15,1.3-7.52l3.48-13.6h-5.54l.62-2.43h5.54l1.92-7.49Z"/>
  <path class="cls-1" d="m241.45,65.95l.41-1.85c2.39-.46,3.99-.98,4.8-1.57.81-.59,1.54-1.64,2.19-3.16s1.53-4.64,2.65-9.38c1.48-6.27,2.83-10.78,4.03-13.54,1.85-4.15,4.14-7.22,6.89-9.23,2.75-2.01,5.52-3.01,8.32-3.01,1.8,0,3.32.46,4.55,1.37,1.23.91,1.85,1.86,1.85,2.84,0,.55-.19,1.01-.56,1.4-.38.39-.83.58-1.35.58-.68,0-1.51-.44-2.49-1.33-1.09-.96-1.94-1.58-2.54-1.88-.6-.29-1.19-.44-1.76-.44-.66,0-1.31.18-1.95.55-.89.5-1.84,1.45-2.85,2.85s-2.07,3.48-3.16,6.24c-.71,1.87-1.61,4.95-2.71,9.23-1.71,6.81-3.02,11.34-3.91,13.57-.64,1.6-1.41,2.92-2.32,3.96,3.26-.71,5.86-1.06,7.79-1.06,1.21,0,2.32.07,3.35.22s2.81.52,5.37,1.11c2.21.53,3.76.79,4.65.79s1.6-.27,2.2-.81.91-1.15.91-1.84c0-.44-.16-1.04-.48-1.82-.3-.73-.44-1.31-.44-1.75,0-.62.18-1.1.55-1.46.36-.35.84-.53,1.44-.53.68,0,1.26.3,1.74.91s.72,1.43.72,2.48c0,1.98-.82,3.69-2.46,5.13s-3.86,2.15-6.67,2.15c-1.39,0-3.18-.1-5.37-.31-7.38-.66-12.21-.99-14.49-.99-3.35,0-6.31.19-8.89.58Z"/>
  <path class="cls-1" d="m285.74,44.55l-1.5-1.16c2.28-2.51,4.35-4.29,6.23-5.35,1.88-1.06,3.48-1.59,4.8-1.59.73,0,1.29.16,1.67.48s.58.75.58,1.3c0,.66-.74,3.46-2.22,8.41-2.41,8.09-3.61,12.96-3.61,14.63,0,.32.08.59.24.8.16.22.33.32.51.32.73,0,2.6-1.41,5.61-4.24l1.33,1.3c-3.12,2.94-5.4,4.82-6.84,5.64s-2.61,1.23-3.52,1.23c-.8,0-1.43-.25-1.9-.75-.47-.5-.7-1.2-.7-2.09,0-2.85,1.71-9.81,5.13-20.88.16-.52.24-.99.24-1.4,0-.46-.21-.68-.62-.68-.46,0-.97.18-1.56.55-.58.37-1.87,1.53-3.88,3.49Zm13.43-22.63c.71,0,1.29.23,1.74.7.46.47.68,1.07.68,1.79,0,1-.35,1.88-1.04,2.65s-1.48,1.14-2.34,1.14c-.68,0-1.25-.24-1.71-.72-.46-.48-.68-1.11-.68-1.88,0-1.03.33-1.9.99-2.61.66-.72,1.45-1.08,2.36-1.08Z"/>
  <path class="cls-1" d="m302.46,44.65l-1.16-1.2c2.92-2.79,5.25-4.65,6.98-5.56s3.22-1.37,4.45-1.37c.48,0,.85.1,1.13.31s.41.45.41.72c0,.21-.06.57-.17,1.09l-1.54,6.88c2.32-2.58,5.23-4.98,8.74-7.22,1.87-1.16,3.4-1.75,4.61-1.75.89,0,1.58.29,2.08.86.5.57.75,1.39.75,2.46,0,.71-.1,1.5-.31,2.39-.36,1.48-1.32,4.71-2.86,9.67-1.45,4.65-2.18,7.74-2.18,9.26,0,.47.07.82.21,1.05s.33.35.58.35c.66,0,1.7-.64,3.11-1.91,1-.91,2-1.75,3.01-2.53l.85,1.23c-2.1,2.31-4.27,4.17-6.53,5.58-1.44.91-2.62,1.36-3.55,1.36-.87,0-1.54-.31-2.02-.94-.48-.63-.72-1.65-.72-3.06,0-2.03,1.26-7.07,3.79-15.14.77-2.87,1.16-4.55,1.16-5.03,0-.71-.42-1.06-1.26-1.06-.91,0-2.08.48-3.52,1.44-2.14,1.41-3.93,3.08-5.37,5-.91,1.23-1.67,3.2-2.29,5.89l-2.77,11.95h-5.09c.96-3.42,1.79-6.7,2.5-9.82l3.04-13.01c.11-.53.17-.9.17-1.13,0-.62-.23-.92-.68-.92-.37,0-.89.24-1.57.72-1.41.94-2.73,2.09-3.96,3.45Z"/>
  <path class="cls-1" d="m338.93,65.37h-5.09l4.48-18.63c2.16-9.24,3.58-14.93,4.25-17.07s1.48-3.91,2.43-5.3c.94-1.39,2.13-2.63,3.55-3.73,1.42-1.09,2.96-1.93,4.61-2.52,1.65-.58,3.1-.87,4.36-.87,1.18,0,2.07.23,2.65.68.58.46.87,1.06.87,1.81,0,.64-.26,1.19-.79,1.64-.52.46-1.18.68-1.98.68-1,0-2.52-.17-4.54-.51-.66-.14-1.24-.21-1.74-.21-.71,0-1.37.25-2,.75s-1.18,1.4-1.67,2.69c-.49,1.29-1.18,3.97-2.07,8.04l-2.46,10.9c2.19-2.48,4.46-4.4,6.81-5.74,1.78-1,3.48-1.5,5.1-1.5,1.14,0,2.1.43,2.89,1.28.79.85,1.18,1.93,1.18,3.23,0,2.44-1.26,4.62-3.79,6.53s-6.39,2.94-11.59,3.08c1.75.78,3.16,1.62,4.2,2.55,1.05.92,2.08,2.2,3.09,3.83,1.01,1.63,2.32,4.36,3.91,8.2,1.89,4.56,3.65,7.6,5.26,9.1,1.59,1.51,3.35,2.26,5.26,2.26,1.12,0,2.04-.24,2.77-.73.73-.49,1.09-.99,1.09-1.49,0-.32-.11-.75-.34-1.3-.25-.59-.38-1.09-.38-1.5,0-.53.21-.99.62-1.4s.89-.62,1.44-.62c.64,0,1.18.26,1.64.77.46.51.68,1.19.68,2.03,0,1.64-.75,3.1-2.26,4.38s-3.46,1.91-5.88,1.91-4.71-.63-6.67-1.88c-1.96-1.26-3.79-3.26-5.5-6.02-.98-1.6-2.69-5.23-5.13-10.92-1.14-2.69-2.16-4.71-3.07-6.06-.71-1.05-1.67-2.09-2.9-3.11l-3.33,14.76Zm3.65-16.2c3.06.02,5.54-.27,7.43-.89s3.24-1.44,4.05-2.46c.8-1.03,1.21-2.14,1.21-3.35,0-.87-.23-1.56-.7-2.09-.47-.52-1.03-.79-1.69-.79-2.14,0-5.41,2.38-9.83,7.15l-.47,2.42Z"/>
</svg>